<?xml version="1.0" standalone="no"?>
<!DOCTYPE svg PUBLIC "-//W3C//DTD SVG 20010904//EN"
 "http://www.w3.org/TR/2001/REC-SVG-20010904/DTD/svg10.dtd">
<svg version="1.0" xmlns="http://www.w3.org/2000/svg"
 width="512.000000pt" height="512.000000pt" viewBox="0 0 512.000000 512.000000"
 preserveAspectRatio="xMidYMid meet">

<g transform="translate(0.000000,512.000000) scale(0.100000,-0.100000)"
fill="#000000" stroke="none">
<path d="M4245 5022 c-85 -22 -148 -50 -212 -93 -26 -17 -267 -250 -534 -516
l-486 -485 -104 26 c-57 14 -142 30 -189 35 -72 8 -87 13 -100 32 -97 148
-245 250 -414 286 -68 14 -207 13 -276 -3 -22 -5 -30 2 -67 59 -54 82 -172
194 -260 246 -257 152 -586 145 -836 -19 -175 -113 -288 -273 -345 -485 -17
-64 -23 -249 -10 -322 l8 -41 -65 -31 c-124 -58 -224 -180 -260 -316 -65 -251
94 -513 352 -580 45 -12 126 -15 375 -15 l318 0 -7 -57 c-12 -89 -8 -341 6
-408 7 -33 24 -96 38 -139 l25 -79 -356 -356 -355 -356 -202 -525 c-111 -289
-204 -542 -207 -562 -17 -129 107 -253 236 -236 20 3 273 96 562 207 l525 202
258 257 257 257 0 -41 c0 -48 15 -98 42 -136 19 -28 19 -28 0 -55 -62 -90 -54
-203 19 -287 21 -23 55 -50 76 -60 30 -13 45 -30 72 -81 62 -120 182 -215 316
-250 210 -54 444 52 546 250 27 51 42 68 72 81 72 33 137 130 137 205 0 22 4
20 47 -23 l47 -47 72 69 c105 99 181 115 255 53 47 -40 59 -79 59 -188 l0 -95
240 0 240 0 0 95 c0 109 12 148 59 188 74 62 150 46 255 -53 l72 -69 167 167
166 167 -69 72 c-99 103 -115 180 -53 254 40 47 79 59 188 59 l95 0 0 240 0
240 -95 0 c-109 0 -148 12 -188 59 -62 74 -46 150 53 255 l69 72 -167 167
-167 167 -60 -60 c-104 -105 -191 -126 -266 -62 -47 39 -59 78 -59 186 l0 95
-82 3 -83 3 -8 80 c-4 44 -19 127 -33 184 l-26 104 485 486 c266 267 499 508
516 534 202 300 110 724 -198 911 -138 84 -337 116 -486 78z m247 -153 c224
-47 390 -253 387 -482 -1 -131 -58 -251 -171 -364 l-68 -68 -342 343 -343 342
68 68 c37 37 93 84 124 102 100 61 230 83 345 59z m-3094 -342 c134 -46 245
-128 319 -234 l42 -59 -64 -46 c-113 -82 -211 -235 -239 -370 -13 -63 -13 -63
-68 -90 -98 -47 -171 -143 -185 -243 l-6 -45 80 0 79 0 12 44 c40 151 264 151
304 0 l12 -44 79 0 80 0 -6 45 c-14 99 -95 206 -183 242 -44 18 -46 19 -41 55
8 64 63 165 122 227 120 125 297 178 458 136 226 -59 383 -272 364 -495 -7
-85 -10 -90 -62 -123 -86 -54 -157 -169 -171 -274 l-7 -53 82 0 c68 0 81 3 81
16 0 108 125 224 240 224 124 0 240 -116 240 -240 0 -95 -81 -204 -170 -228
-35 -10 -303 -12 -1180 -10 l-1135 3 -51 27 c-76 40 -107 70 -145 140 -31 58
-34 70 -33 148 0 100 24 160 89 225 65 65 125 89 225 89 73 0 92 -4 136 -26
28 -15 65 -38 81 -52 39 -33 90 -129 98 -188 l7 -48 79 0 79 0 0 28 c0 15 -7
54 -15 87 -48 182 -200 324 -383 356 -40 7 -63 17 -67 27 -16 41 -17 199 -1
272 50 238 251 442 486 495 97 22 246 14 338 -18z m2787 -347 l340 -340 -63
-62 -62 -63 -342 342 -343 343 60 60 c33 33 62 60 65 60 3 0 158 -153 345
-340z m-440 -40 l140 -140 -184 -184 -184 -184 -79 63 c-65 51 -209 142 -253
159 -9 3 403 426 415 426 3 0 68 -63 145 -140z m400 -400 l140 -140 -214 -213
c-117 -116 -215 -207 -217 -202 -18 45 -108 188 -159 252 l-63 78 182 183 c99
100 183 182 186 182 3 0 68 -63 145 -140z m-1271 59 c354 -89 659 -335 828
-668 156 -306 180 -672 63 -952 -52 -123 -130 -224 -340 -439 -110 -113 -219
-227 -241 -255 -54 -65 -130 -184 -155 -240 l-20 -45 -184 0 -185 0 0 216 c0
257 -5 279 -75 349 -63 64 -100 75 -244 75 -105 0 -113 1 -136 25 -16 15 -25
36 -25 55 0 19 9 40 25 55 l24 25 432 0 c310 0 443 3 473 12 86 26 166 136
166 228 0 92 -80 202 -166 228 -29 8 -146 12 -393 12 l-352 0 -24 25 c-24 23
-25 29 -25 159 l0 134 248 4 247 3 67 32 c93 44 151 100 196 191 35 72 37 81
37 171 0 87 -3 102 -32 163 -17 37 -50 87 -73 112 -54 58 -161 113 -238 122
l-57 6 0 82 c0 44 -3 96 -7 115 l-8 33 48 -7 c26 -3 83 -15 126 -26z m-714
-1135 c0 -78 5 -154 12 -178 16 -55 99 -138 154 -154 29 -8 146 -12 393 -12
l352 0 24 -25 c16 -15 25 -36 25 -55 0 -19 -9 -40 -25 -55 l-24 -25 -432 0
c-310 0 -443 -3 -473 -12 -55 -16 -138 -99 -154 -154 -28 -94 -8 -169 63 -239
63 -64 100 -75 244 -75 105 0 113 -1 136 -25 25 -24 25 -24 25 -240 l0 -215
-185 0 -184 0 -20 45 c-25 56 -101 175 -155 240 -22 28 -131 142 -241 255
-265 271 -333 373 -386 580 -27 104 -34 254 -19 378 l12 102 429 0 429 0 0
-136z m1903 -377 c28 -37 90 -83 141 -105 86 -37 214 -21 295 39 l44 31 54
-55 55 -54 -31 -43 c-35 -48 -61 -125 -61 -179 0 -59 30 -146 69 -197 46 -62
112 -102 190 -117 l61 -12 0 -76 0 -76 -48 -7 c-230 -30 -348 -307 -211 -495
l31 -44 -55 -54 -54 -55 -44 31 c-188 137 -465 19 -495 -211 l-7 -48 -77 0
-77 0 -7 48 c-30 230 -307 348 -495 211 l-43 -31 -53 52 -53 53 5 52 c5 43 1
63 -22 114 l-28 62 42 82 c42 83 146 227 169 235 7 2 12 -5 12 -15 0 -37 42
-143 81 -203 73 -114 174 -190 309 -236 76 -26 244 -26 320 0 130 43 257 142
317 244 133 227 99 503 -83 686 -101 100 -251 166 -381 166 -18 0 -33 2 -33 4
0 2 9 25 21 50 27 63 69 228 70 280 l0 41 22 -66 c13 -36 35 -82 50 -102z
m-2605 -535 l85 -94 -291 -291 -292 -292 -142 143 -143 142 304 304 304 304
45 -61 c25 -34 83 -104 130 -155z m2626 130 c91 -42 149 -100 194 -190 35 -72
37 -81 37 -172 0 -91 -2 -100 -37 -172 -45 -91 -103 -147 -196 -191 -61 -29
-76 -32 -162 -32 -86 0 -101 3 -162 32 -93 44 -151 100 -196 191 -35 71 -37
82 -37 168 l0 92 75 79 c42 43 102 108 133 145 68 78 96 89 209 84 61 -3 92
-11 142 -34z m-2336 -426 c43 -47 100 -115 125 -153 l46 -68 -279 -280 -280
-280 -142 143 -143 142 290 290 c159 159 293 290 296 290 4 0 43 -38 87 -84z
m-546 -867 c-4 -4 -121 -51 -261 -104 l-253 -98 -150 151 -151 150 98 253 c53
140 99 258 102 263 3 4 144 -130 314 -300 170 -170 305 -312 301 -315z m1813
426 c16 -15 25 -36 25 -55 0 -19 -9 -40 -25 -55 l-24 -25 -431 0 -431 0 -24
25 c-16 15 -25 36 -25 55 0 19 9 40 25 55 l24 25 431 0 431 0 24 -25z m0 -320
c16 -15 25 -36 25 -55 0 -19 -9 -40 -25 -55 l-24 -25 -431 0 -431 0 -24 25
c-16 15 -25 36 -25 55 0 19 9 40 25 55 l24 25 431 0 431 0 24 -25z m-2498
-371 c-7 -8 -213 -84 -226 -84 -20 0 -51 30 -51 49 0 9 19 65 42 124 l41 108
98 -97 c54 -54 97 -99 96 -100z m2304 47 c-61 -85 -144 -125 -261 -125 -117 0
-200 40 -261 125 l-20 29 281 0 281 0 -20 -29z"/>
<path d="M3840 1747 c-49 -16 -133 -102 -148 -153 -28 -94 -8 -169 63 -239
101 -102 229 -102 330 0 98 97 101 222 8 325 -65 72 -158 97 -253 67z m135
-172 c50 -49 15 -135 -55 -135 -41 0 -80 39 -80 80 0 41 39 80 80 80 19 0 40
-9 55 -25z"/>
</g>
</svg>
