<svg id="eZaNmL0sD9u1" xmlns="http://www.w3.org/2000/svg" xmlns:xlink="http://www.w3.org/1999/xlink" viewBox="0 0 127.14 96.36" shape-rendering="geometricPrecision" text-rendering="geometricPrecision"><path d="M107.7,8.07C99.346752,4.245679,90.528332,1.532578,81.47,0c-1.239545,2.215882-2.361109,4.495729-3.36,6.83-9.648866-1.45398-19.461134-1.45398-29.11,0-.999414-2.334031-2.120965-4.61385-3.36-6.83-9.064135,1.54552-17.88836,4.265062-26.25,8.09C2.79,32.65,-1.71,56.6,0.54,80.21v0c9.721377,7.182582,20.602369,12.645064,32.17,16.15c2.604685-3.503208,4.909507-7.219692,6.89-11.11-3.761663-1.404936-7.392344-3.138294-10.85-5.18.91-.66,1.8-1.34,2.66-2c20.369957,9.579502,43.950043,9.579502,64.32,0c.87.71,1.76,1.39,2.66,2-3.46434,2.045014-7.101658,3.781692-10.87,5.19c1.978064,3.888508,4.283026,7.60187,6.89,11.1c11.577505-3.490872,22.466846-8.950766,32.19-16.14v0c2.64-27.38-4.51-51.11-18.9-72.15ZM42.45,65.69C36.18,65.69,31,60,31,53s5-12.74,11.43-12.74s11.57,5.74,11.46,12.74-5.05,12.69-11.44,12.69Zm42.24,0C78.41,65.69,73.25,60,73.25,53s5-12.74,11.44-12.74s11.54,5.74,11.43,12.74-5.04,12.69-11.43,12.69Z"/></svg>
