<?xml version="1.0" standalone="no"?>
<!DOCTYPE svg PUBLIC "-//W3C//DTD SVG 20010904//EN"
 "http://www.w3.org/TR/2001/REC-SVG-20010904/DTD/svg10.dtd">
<svg version="1.0" xmlns="http://www.w3.org/2000/svg"
 width="512.000000pt" height="512.000000pt" viewBox="0 0 512.000000 512.000000"
 preserveAspectRatio="xMidYMid meet">

<g transform="translate(0.000000,512.000000) scale(0.100000,-0.100000)"
fill="#000000" stroke="none">
<path d="M630 4032 c-64 -24 -160 -123 -183 -187 -55 -159 18 -332 171 -403
l57 -27 1450 0 c1648 0 1507 -8 1609 86 74 67 100 129 101 234 0 68 -4 89 -28
137 -30 62 -83 115 -149 150 l-43 23 -1470 2 c-1355 2 -1474 0 -1515 -15z"/>
<path d="M4257 4030 c-75 -29 -132 -82 -169 -157 -27 -56 -32 -77 -32 -137 1
-284 342 -428 541 -229 66 66 88 123 88 228 0 78 -4 97 -27 141 -36 68 -113
136 -178 157 -68 22 -162 21 -223 -3z"/>
<path d="M630 2752 c-64 -24 -160 -123 -183 -187 -55 -159 18 -332 171 -403
l57 -27 1450 0 c1648 0 1507 -8 1609 86 74 67 100 129 101 234 0 68 -4 89 -28
137 -30 62 -83 115 -149 150 l-43 23 -1470 2 c-1355 2 -1474 0 -1515 -15z"/>
<path d="M630 1472 c-64 -24 -160 -123 -183 -187 -55 -159 18 -332 171 -403
l57 -27 810 0 c924 0 870 -5 969 86 74 67 100 129 101 234 0 68 -4 89 -28 137
-30 62 -83 115 -149 150 l-43 23 -830 2 c-757 2 -834 0 -875 -15z"/>
</g>
</svg>
